<svg width="24" height="24" viewBox="0 0 24 24" fill="none" xmlns="http://www.w3.org/2000/svg">
<path d="M6.9762 3.07401C7.86126 2.92321 8.76888 2.97296 9.63216 3.21958C10.4954 3.46621 11.2924 3.90343 11.9642 4.49901L12.0012 4.53201L12.0352 4.50201C12.6764 3.93931 13.4302 3.51981 14.2464 3.27149C15.0625 3.02318 15.9223 2.95177 16.7682 3.06201L17.0142 3.09801C18.0805 3.28212 19.0772 3.75117 19.8987 4.45548C20.7201 5.1598 21.3359 6.07316 21.6806 7.09885C22.0254 8.12454 22.0864 9.22437 21.8571 10.2819C21.6278 11.3394 21.1168 12.3152 20.3782 13.106L20.1982 13.291L20.1502 13.332L12.7002 20.711C12.5283 20.8812 12.3005 20.9832 12.0591 20.9983C11.8177 21.0134 11.579 20.9405 11.3872 20.793L11.2932 20.711L3.8002 13.289C3.00642 12.5167 2.4419 11.5397 2.16916 10.4663C1.89642 9.39287 1.9261 8.26491 2.25492 7.20733C2.58373 6.14974 3.19886 5.20381 4.03216 4.47428C4.86546 3.74476 5.88442 3.26011 6.9762 3.07401Z" fill="#FF5E55"/>
</svg>
