<svg width="24" height="24" viewBox="0 0 24 24" fill="none" xmlns="http://www.w3.org/2000/svg">
<path d="M19.4974 12.5719L11.9974 19.9999L4.49737 12.5719C4.00268 12.0905 3.61301 11.5119 3.35292 10.8726C3.09282 10.2332 2.96793 9.54688 2.98611 8.85687C3.00428 8.16685 3.16513 7.48807 3.45853 6.86327C3.75192 6.23847 4.17151 5.68119 4.69086 5.22651C5.21021 4.77184 5.81808 4.42962 6.47618 4.22141C7.13429 4.01321 7.82838 3.94352 8.51474 4.01673C9.2011 4.08995 9.86487 4.30449 10.4642 4.64684C11.0636 4.98919 11.5856 5.45193 11.9974 6.00593C12.4109 5.45595 12.9335 4.99725 13.5325 4.65854C14.1314 4.31982 14.7939 4.10838 15.4783 4.03745C16.1627 3.96652 16.8545 4.03763 17.5101 4.24632C18.1658 4.45502 18.7714 4.79681 19.2889 5.2503C19.8064 5.70379 20.2248 6.25922 20.5178 6.88182C20.8108 7.50443 20.9721 8.18082 20.9917 8.86864C21.0112 9.55647 20.8886 10.2409 20.6315 10.8792C20.3744 11.5174 19.9883 12.0958 19.4974 12.5779" stroke="#343A40" stroke-width="2" stroke-linecap="round" stroke-linejoin="round"/>
</svg>
