<svg width="32" height="32" viewBox="0 0 32 32" fill="none" xmlns="http://www.w3.org/2000/svg">
<g clip-path="url(#clip0_312_5402)">
<path d="M22.1587 8.2799C22.0207 8.17062 21.8624 8.08976 21.6929 8.04198C21.5235 7.99421 21.3462 7.98046 21.1715 8.00153C20.9967 8.0226 20.8278 8.07808 20.6746 8.16476C20.5213 8.25145 20.3868 8.36761 20.2787 8.50657L10.9454 20.5066L6.37202 14.9332C6.26475 14.7904 6.12988 14.6707 5.97542 14.581C5.82097 14.4913 5.65007 14.4336 5.47287 14.4112C5.29568 14.3889 5.1158 14.4023 4.94391 14.4509C4.77202 14.4994 4.61163 14.5819 4.47225 14.6936C4.33287 14.8053 4.21736 14.9438 4.13255 15.101C4.04775 15.2582 3.99539 15.4308 3.97858 15.6086C3.96177 15.7864 3.98085 15.9658 4.03469 16.1361C4.08854 16.3063 4.17605 16.4641 4.29202 16.5999L9.85202 23.5066C9.97751 23.6613 10.1361 23.7859 10.316 23.8712C10.496 23.9566 10.6928 24.0006 10.892 23.9999C11.1035 24.0093 11.3141 23.9683 11.5065 23.8802C11.699 23.7921 11.8677 23.6595 11.9987 23.4932L22.4387 10.1599C22.5451 10.0186 22.6224 9.85753 22.666 9.68608C22.7095 9.51463 22.7186 9.33622 22.6925 9.16125C22.6664 8.98628 22.6058 8.81824 22.5142 8.66693C22.4225 8.51561 22.3017 8.38405 22.1587 8.2799ZM28.8254 8.2799C28.6873 8.17062 28.529 8.08976 28.3596 8.04198C28.1901 7.99421 28.0129 7.98046 27.8381 8.00153C27.6633 8.0226 27.4945 8.07808 27.3412 8.16476C27.188 8.25145 27.0535 8.36761 26.9454 8.50657L17.612 20.5066L16.7987 19.5066L15.1187 21.6666L16.5854 23.4932C16.7108 23.6479 16.8694 23.7725 17.0494 23.8579C17.2294 23.9433 17.4262 23.9872 17.6254 23.9866C17.8256 23.9856 18.0231 23.9396 18.2032 23.8519C18.3832 23.7642 18.5412 23.637 18.6654 23.4799L29.1054 10.1466C29.2097 10.0057 29.2853 9.8456 29.3277 9.67548C29.3701 9.50536 29.3785 9.32855 29.3525 9.15516C29.3265 8.98177 29.2666 8.81522 29.1761 8.66503C29.0856 8.51484 28.9665 8.38397 28.8254 8.2799Z" fill="#348C1B"/>
<path d="M11.6118 17.4133L13.3318 15.2533L13.0651 14.9333C12.9599 14.7875 12.8262 14.6645 12.6721 14.5717C12.5181 14.4788 12.3468 14.4181 12.1687 14.3932C11.9906 14.3683 11.8092 14.3797 11.6356 14.4267C11.462 14.4737 11.2997 14.5553 11.1585 14.6667C11.0215 14.7767 10.9076 14.9127 10.8234 15.0669C10.7392 15.2211 10.6862 15.3904 10.6676 15.5651C10.6491 15.7398 10.6652 15.9165 10.7151 16.0849C10.765 16.2534 10.8477 16.4103 10.9585 16.5467L11.6118 17.4133Z" fill="#348C1B"/>
</g>
<defs>
<clipPath id="clip0_312_5402">
<rect width="32" height="32" fill="white"/>
</clipPath>
</defs>
</svg>
